<svg xmlns="http://www.w3.org/2000/svg" width="189" height="189" version="1.1" id="svg10"><defs id="defs4"><style id="style2"></style></defs><path id="rect30-5-0-6" d="M157.3 158.8v0H32.5l-29 27.7v-156c0-14.9 12.6-27 28.2-27h125.6c15.6 0 28.2 12.1 28.2 27v101.3c0 14.9-12.6 27-28.2 27" opacity="1" fill="#814b88" fill-opacity="1" stroke="#fff" stroke-width="7" stroke-linejoin="bevel" stroke-miterlimit="4" stroke-dasharray="none" stroke-opacity="1"/><path id="path5155-5-3" d="M58.8 43.6A7.2 7.2 0 0164 31.3c2 0 3.8.8 5.1 2.1l39.6 39.8c5.7 5.6 13.5 6.2 19 .6l16-16c9.4-9.4 20.3 3.7 12.3 12.3l-11.6 12s-8.4 26-11.8 30.5c-3.3 4.4-4.5 6.2-15.5 16.5a24.4 24.4 0 01-35-.4 9112 9112 0 01-49.5-50.2 7.2 7.2 0 015-12.3c2 0 3.9.8 5.2 2" opacity="1" fill="none" fill-opacity="1" stroke="#fff" stroke-width="7" stroke-linecap="round" stroke-linejoin="round" stroke-miterlimit="4" stroke-dasharray="none" stroke-opacity="1"/><path id="path5155-5" d="M72.7 78L41.3 46.4v0a7.2 7.2 0 015-12.3c2 0 3.9.8 5.2 2.1h0l33.2 33.5" opacity="1" fill="none" fill-opacity="1" stroke="#fff" stroke-width="7" stroke-linecap="round" stroke-linejoin="miter" stroke-miterlimit="4" stroke-dasharray="none" stroke-opacity="1"/><path d="M88.2 25.5c12.3 8 24 17.5 33.6 32.1" id="path5155-5-3-3" opacity="1" fill="#a73a6f" fill-opacity="1" stroke="#fff" stroke-width="7" stroke-linecap="round" stroke-linejoin="miter" stroke-miterlimit="4" stroke-dasharray="none" stroke-opacity="1"/><path d="M108.8 22.6c6 4.6 12.1 10 18.4 18" id="path5155-5-3-6" opacity="1" fill="#a73a6f" fill-opacity="1" stroke="#fff" stroke-width="7" stroke-linecap="round" stroke-linejoin="miter" stroke-miterlimit="4" stroke-dasharray="none" stroke-opacity="1"/><path d="M34 104.4A97 97 0 0070 139.8" id="path5155-5-3-7" opacity="1" fill="#a73a6f" fill-opacity="1" stroke="#fff" stroke-width="7" stroke-linecap="round" stroke-linejoin="miter" stroke-miterlimit="4" stroke-dasharray="none" stroke-opacity="1"/><path id="path5006-2-6-8-2" d="M45.8 51a7.2 7.2 0 00-12.3 5.1c0 2 .9 3.8 2.2 5.1l31.9 32.2" opacity="1" fill="none" fill-opacity="1" stroke="#fff" stroke-width="7" stroke-linecap="round" stroke-linejoin="bevel" stroke-miterlimit="4" stroke-dasharray="none"/></svg>